<mxfile host="app.diagrams.net" modified="2023-09-27T16:21:21.346Z" agent="Mozilla/5.0 (Windows NT 10.0; Win64; x64) AppleWebKit/537.36 (KHTML, like Gecko) Chrome/116.0.0.0 Safari/537.36" etag="1L2eqochLGFRpSGGkt8G" version="21.8.2" type="device">
  <diagram name="Page-1" id="CCW_XzJwm_3JpARHhc6J">
    <mxGraphModel dx="880" dy="446" grid="1" gridSize="10" guides="1" tooltips="1" connect="1" arrows="1" fold="1" page="1" pageScale="1" pageWidth="827" pageHeight="1169" math="0" shadow="0">
      <root>
        <mxCell id="0" />
        <mxCell id="1" parent="0" />
        <mxCell id="vCf6Gy8oyGOwq4UAaRwe-1" value="Music Player" style="verticalAlign=top;align=left;spacingTop=8;spacingLeft=2;spacingRight=12;shape=cube;size=10;direction=south;fontStyle=4;html=1;" parent="1" vertex="1">
          <mxGeometry x="20" y="80" width="192" height="147" as="geometry" />
        </mxCell>
        <mxCell id="vCf6Gy8oyGOwq4UAaRwe-2" value="server/ Music recommendation system" style="verticalAlign=top;align=left;spacingTop=8;spacingLeft=2;spacingRight=12;shape=cube;size=10;direction=south;fontStyle=4;html=1;" parent="1" vertex="1">
          <mxGeometry x="550" y="75" width="270" height="180" as="geometry" />
        </mxCell>
        <mxCell id="vCf6Gy8oyGOwq4UAaRwe-3" value="Input Validation Component" style="verticalAlign=top;align=left;spacingTop=8;spacingLeft=2;spacingRight=12;shape=cube;size=10;direction=south;fontStyle=4;html=1;" parent="1" vertex="1">
          <mxGeometry x="290" y="105" width="180" height="120" as="geometry" />
        </mxCell>
        <mxCell id="vCf6Gy8oyGOwq4UAaRwe-4" value="&lt;span style=&quot;border-color: var(--border-color); text-align: center;&quot;&gt;&lt;font style=&quot;font-size: 12px;&quot;&gt;Database&lt;/font&gt;&lt;/span&gt;" style="verticalAlign=top;align=left;spacingTop=8;spacingLeft=2;spacingRight=12;shape=cube;size=10;direction=south;fontStyle=4;html=1;" parent="1" vertex="1">
          <mxGeometry x="420" y="280" width="180" height="120" as="geometry" />
        </mxCell>
        <mxCell id="CCH_5-n9m3951sMh4jsy-13" value="" style="edgeStyle=orthogonalEdgeStyle;rounded=0;orthogonalLoop=1;jettySize=auto;html=1;fontSize=10;" parent="1" source="vCf6Gy8oyGOwq4UAaRwe-12" target="CCH_5-n9m3951sMh4jsy-11" edge="1">
          <mxGeometry relative="1" as="geometry" />
        </mxCell>
        <mxCell id="vCf6Gy8oyGOwq4UAaRwe-12" value="&lt;p style=&quot;margin:0px;margin-top:6px;text-align:center;&quot;&gt;&lt;b&gt;&lt;br&gt;&lt;/b&gt;&lt;/p&gt;&lt;p style=&quot;margin:0px;margin-top:6px;text-align:center;&quot;&gt;&lt;font style=&quot;font-size: 10px;&quot;&gt;&lt;b&gt;Recommendation&lt;/b&gt;&lt;/font&gt;&lt;/p&gt;&lt;p style=&quot;margin:0px;margin-top:6px;text-align:center;&quot;&gt;&lt;font style=&quot;font-size: 10px;&quot;&gt;&lt;b&gt;Engine&lt;/b&gt;&lt;/font&gt;&lt;/p&gt;" style="align=left;overflow=fill;html=1;dropTarget=0;" parent="1" vertex="1">
          <mxGeometry x="560" y="135" width="90" height="60" as="geometry" />
        </mxCell>
        <mxCell id="vCf6Gy8oyGOwq4UAaRwe-13" value="" style="shape=component;jettyWidth=8;jettyHeight=4;" parent="vCf6Gy8oyGOwq4UAaRwe-12" vertex="1">
          <mxGeometry x="1" width="20" height="20" relative="1" as="geometry">
            <mxPoint x="-24" y="4" as="offset" />
          </mxGeometry>
        </mxCell>
        <mxCell id="vCf6Gy8oyGOwq4UAaRwe-14" value="&lt;p style=&quot;margin:0px;margin-top:6px;text-align:center;&quot;&gt;&lt;span style=&quot;font-size: 10px;&quot;&gt;&lt;b&gt;recommendation&lt;/b&gt;&lt;/span&gt;&lt;/p&gt;&lt;p style=&quot;margin:0px;margin-top:6px;text-align:center;&quot;&gt;&lt;span style=&quot;font-size: 10px;&quot;&gt;&lt;b&gt;Data access&lt;/b&gt;&lt;/span&gt;&lt;/p&gt;" style="align=left;overflow=fill;html=1;dropTarget=0;" parent="1" vertex="1">
          <mxGeometry x="690" y="190" width="110" height="50" as="geometry" />
        </mxCell>
        <mxCell id="vCf6Gy8oyGOwq4UAaRwe-15" value="" style="shape=component;jettyWidth=8;jettyHeight=4;" parent="vCf6Gy8oyGOwq4UAaRwe-14" vertex="1">
          <mxGeometry x="1" width="20" height="20" relative="1" as="geometry">
            <mxPoint x="-24" y="4" as="offset" />
          </mxGeometry>
        </mxCell>
        <mxCell id="vCf6Gy8oyGOwq4UAaRwe-16" value="&lt;p style=&quot;margin:0px;margin-top:6px;text-align:center;&quot;&gt;&lt;span style=&quot;font-size: 10px;&quot;&gt;&lt;b&gt;Player&amp;nbsp;&lt;/b&gt;&lt;/span&gt;&lt;/p&gt;&lt;p style=&quot;margin:0px;margin-top:6px;text-align:center;&quot;&gt;&lt;span style=&quot;font-size: 10px;&quot;&gt;&lt;b&gt;with controls&lt;/b&gt;&lt;/span&gt;&lt;/p&gt;" style="align=left;overflow=fill;html=1;dropTarget=0;" parent="1" vertex="1">
          <mxGeometry x="76" y="160" width="80" height="50" as="geometry" />
        </mxCell>
        <mxCell id="vCf6Gy8oyGOwq4UAaRwe-17" value="" style="shape=component;jettyWidth=8;jettyHeight=4;" parent="vCf6Gy8oyGOwq4UAaRwe-16" vertex="1">
          <mxGeometry x="1" width="20" height="20" relative="1" as="geometry">
            <mxPoint x="-24" y="4" as="offset" />
          </mxGeometry>
        </mxCell>
        <mxCell id="CCH_5-n9m3951sMh4jsy-10" value="" style="edgeStyle=orthogonalEdgeStyle;rounded=0;orthogonalLoop=1;jettySize=auto;html=1;fontSize=10;" parent="1" source="vCf6Gy8oyGOwq4UAaRwe-18" target="vCf6Gy8oyGOwq4UAaRwe-77" edge="1">
          <mxGeometry relative="1" as="geometry" />
        </mxCell>
        <mxCell id="vCf6Gy8oyGOwq4UAaRwe-18" value="&lt;p style=&quot;margin:0px;margin-top:6px;text-align:center;&quot;&gt;&lt;font style=&quot;font-size: 10px;&quot;&gt;&lt;b style=&quot;&quot;&gt;Emotion&amp;nbsp;&lt;/b&gt;&lt;/font&gt;&lt;/p&gt;&lt;p style=&quot;margin:0px;margin-top:6px;text-align:center;&quot;&gt;&lt;font style=&quot;font-size: 10px;&quot;&gt;&lt;b&gt;detection&lt;/b&gt;&lt;/font&gt;&lt;/p&gt;&lt;p style=&quot;margin:0px;margin-top:6px;text-align:center;&quot;&gt;&lt;font style=&quot;font-size: 10px;&quot;&gt;&lt;b&gt;model&lt;/b&gt;&lt;/font&gt;&lt;/p&gt;" style="align=left;overflow=fill;html=1;dropTarget=0;" parent="1" vertex="1">
          <mxGeometry x="340" y="150" width="110" height="60" as="geometry" />
        </mxCell>
        <mxCell id="vCf6Gy8oyGOwq4UAaRwe-19" value="" style="shape=component;jettyWidth=8;jettyHeight=4;" parent="vCf6Gy8oyGOwq4UAaRwe-18" vertex="1">
          <mxGeometry x="1" width="20" height="20" relative="1" as="geometry">
            <mxPoint x="-24" y="4" as="offset" />
          </mxGeometry>
        </mxCell>
        <mxCell id="GEtKV0VZ8wJLmRky1Sb--1" style="edgeStyle=orthogonalEdgeStyle;rounded=0;orthogonalLoop=1;jettySize=auto;html=1;entryX=1;entryY=0.75;entryDx=0;entryDy=0;" parent="1" source="vCf6Gy8oyGOwq4UAaRwe-64" target="vCf6Gy8oyGOwq4UAaRwe-13" edge="1">
          <mxGeometry relative="1" as="geometry" />
        </mxCell>
        <mxCell id="vCf6Gy8oyGOwq4UAaRwe-64" value="" style="shape=providedRequiredInterface;html=1;verticalLabelPosition=bottom;sketch=0;strokeWidth=1;rotation=-180;" parent="1" vertex="1">
          <mxGeometry x="710" y="143.5" width="20" height="20" as="geometry" />
        </mxCell>
        <mxCell id="vCf6Gy8oyGOwq4UAaRwe-73" value="Songs and &#xa;playlists" style="shape=module;align=left;spacingLeft=20;align=center;verticalAlign=top;strokeWidth=1;fontSize=11;fontStyle=1" parent="1" vertex="1">
          <mxGeometry x="480" y="330" width="95" height="55" as="geometry" />
        </mxCell>
        <mxCell id="vCf6Gy8oyGOwq4UAaRwe-76" value="" style="endArrow=block;startArrow=block;endFill=1;startFill=1;html=1;rounded=0;strokeWidth=1;entryX=1;entryY=0.5;entryDx=0;entryDy=0;exitX=0.727;exitY=0.83;exitDx=0;exitDy=0;exitPerimeter=0;" parent="1" edge="1" target="vCf6Gy8oyGOwq4UAaRwe-73" source="vCf6Gy8oyGOwq4UAaRwe-14">
          <mxGeometry width="160" relative="1" as="geometry">
            <mxPoint x="767.5" y="180" as="sourcePoint" />
            <mxPoint x="770" y="360" as="targetPoint" />
            <Array as="points">
              <mxPoint x="770" y="358" />
            </Array>
          </mxGeometry>
        </mxCell>
        <mxCell id="vCf6Gy8oyGOwq4UAaRwe-80" value="" style="edgeStyle=orthogonalEdgeStyle;rounded=0;orthogonalLoop=1;jettySize=auto;html=1;strokeWidth=1;" parent="1" source="vCf6Gy8oyGOwq4UAaRwe-77" target="vCf6Gy8oyGOwq4UAaRwe-17" edge="1">
          <mxGeometry relative="1" as="geometry" />
        </mxCell>
        <mxCell id="vCf6Gy8oyGOwq4UAaRwe-77" value="" style="shape=providedRequiredInterface;html=1;verticalLabelPosition=bottom;sketch=0;strokeWidth=1;rotation=-180;" parent="1" vertex="1">
          <mxGeometry x="230" y="130" width="20" height="20" as="geometry" />
        </mxCell>
        <mxCell id="GEtKV0VZ8wJLmRky1Sb--18" style="edgeStyle=orthogonalEdgeStyle;rounded=0;orthogonalLoop=1;jettySize=auto;html=1;" parent="1" source="vCf6Gy8oyGOwq4UAaRwe-81" target="vCf6Gy8oyGOwq4UAaRwe-1" edge="1">
          <mxGeometry relative="1" as="geometry" />
        </mxCell>
        <mxCell id="vCf6Gy8oyGOwq4UAaRwe-81" value="User" style="shape=umlActor;verticalLabelPosition=bottom;verticalAlign=top;html=1;strokeWidth=1;" parent="1" vertex="1">
          <mxGeometry x="101" y="310" width="30" height="60" as="geometry" />
        </mxCell>
        <mxCell id="vCf6Gy8oyGOwq4UAaRwe-93" value="" style="endArrow=open;endFill=1;endSize=7;html=1;rounded=0;strokeWidth=1;exitX=0.75;exitY=0;exitDx=0;exitDy=0;" parent="1" edge="1" source="vCf6Gy8oyGOwq4UAaRwe-14">
          <mxGeometry width="160" relative="1" as="geometry">
            <mxPoint x="770" y="185" as="sourcePoint" />
            <mxPoint x="730" y="155" as="targetPoint" />
            <Array as="points">
              <mxPoint x="770" y="155" />
            </Array>
          </mxGeometry>
        </mxCell>
        <mxCell id="vCf6Gy8oyGOwq4UAaRwe-95" value="API" style="text;html=1;align=center;verticalAlign=middle;resizable=0;points=[];autosize=1;strokeColor=none;fillColor=none;" parent="1" vertex="1">
          <mxGeometry x="480" y="112" width="40" height="30" as="geometry" />
        </mxCell>
        <mxCell id="CCH_5-n9m3951sMh4jsy-3" value="&lt;b&gt;User Emotions Input&lt;/b&gt;" style="text;strokeColor=none;align=center;fillColor=none;html=1;verticalAlign=middle;whiteSpace=wrap;rounded=0;fontSize=10;" parent="1" vertex="1">
          <mxGeometry x="60" y="240" width="60" height="30" as="geometry" />
        </mxCell>
        <mxCell id="CCH_5-n9m3951sMh4jsy-12" value="" style="edgeStyle=orthogonalEdgeStyle;rounded=0;orthogonalLoop=1;jettySize=auto;html=1;fontSize=10;" parent="1" source="CCH_5-n9m3951sMh4jsy-11" target="vCf6Gy8oyGOwq4UAaRwe-19" edge="1">
          <mxGeometry relative="1" as="geometry" />
        </mxCell>
        <mxCell id="CCH_5-n9m3951sMh4jsy-11" value="" style="shape=providedRequiredInterface;html=1;verticalLabelPosition=bottom;sketch=0;strokeWidth=1;rotation=-180;" parent="1" vertex="1">
          <mxGeometry x="490" y="155" width="20" height="20" as="geometry" />
        </mxCell>
        <mxCell id="GEtKV0VZ8wJLmRky1Sb--22" value="&lt;b&gt;by: Group 13&lt;/b&gt;" style="text;html=1;align=center;verticalAlign=middle;resizable=0;points=[];autosize=1;strokeColor=none;fillColor=none;" parent="1" vertex="1">
          <mxGeometry x="250" y="400" width="100" height="30" as="geometry" />
        </mxCell>
      </root>
    </mxGraphModel>
  </diagram>
</mxfile>
